<svg xmlns="http://www.w3.org/2000/svg" xmlns:xlink="http://www.w3.org/1999/xlink" viewBox="0 0 300.3 391.15"><defs><style>.cls-1{fill:#f9670d;}.cls-2{fill:url(#linear-gradient);}.cls-3{fill:#fff;}</style><linearGradient id="linear-gradient" x1="-229" y1="17.58" x2="71.12" y2="17.58" gradientTransform="translate(229.18 132.48)" gradientUnits="userSpaceOnUse"><stop offset="0" stop-color="#fab81e"/><stop offset="1" stop-color="#f85507"/></linearGradient></defs><g id="Layer_2" data-name="Layer 2"><g id="Layer_1-2" data-name="Layer 1"><path class="cls-1" d="M34.18,352.41h-10v37.35H11.62V352.41H0V340.48H11.62V330.35a9.86,9.86,0,0,1,2.88-7.2,9.65,9.65,0,0,1,7.16-2.93h29.8v69.54H38.94V332.14H26.82c-1.78,0-2.68,1-2.68,3v5.36h10Z"/><path class="cls-1" d="M90.67,382.61a12.91,12.91,0,0,1-5.56,6.61,17.3,17.3,0,0,1-8.35,1.93,20.9,20.9,0,0,1-8.39-1.69,19.86,19.86,0,0,1-6.91-5,24.45,24.45,0,0,1-4.72-7.95A30.31,30.31,0,0,1,55,365.92v-1.59a30.94,30.94,0,0,1,1.68-10.53,24.7,24.7,0,0,1,4.57-7.95,19.5,19.5,0,0,1,14.91-6.76,17.49,17.49,0,0,1,8.49,1.79,12.54,12.54,0,0,1,5.12,5.57h1.79v-6h12.51v34.38c0,2,.9,3,2.69,3h1.88v11.92h-8.54a7.74,7.74,0,0,1-5.51-2,6.69,6.69,0,0,1-2.14-5.16Zm-11.13-3.38a11.22,11.22,0,0,0,8.75-3.63q3.27-3.62,3.28-9.88v-1.19q0-6.27-3.28-9.89A11.24,11.24,0,0,0,79.54,351a11.24,11.24,0,0,0-8.74,3.62q-3.27,3.63-3.28,9.89v1.19q0,6.25,3.28,9.88A11.21,11.21,0,0,0,79.54,379.23Z"/><path class="cls-1" d="M105.51,340.48h14.61V320.22h12.51v20.26h17.79v11.93H132.63v22.45c0,2,.9,3,2.69,3h13.31v11.92H127.77a7.4,7.4,0,0,1-5.52-2.18,7.67,7.67,0,0,1-2.13-5.57v-29.6H105.51Z"/><path class="cls-1" d="M167.8,389.76H155.28V320.22H167.8v28.21h1.78a15,15,0,0,1,5.57-6.9,16,16,0,0,1,9-2.44,18.41,18.41,0,0,1,6.75,1.2,14.62,14.62,0,0,1,5.37,3.57,16.69,16.69,0,0,1,3.58,6.11,27,27,0,0,1,1.29,8.8v31H188.66v-28c0-3.51-.85-6.28-2.53-8.3a9,9,0,0,0-7.31-3q-5.56,0-8.29,3.73t-2.73,10Z"/><path class="cls-1" d="M240.47,382.61a12.91,12.91,0,0,1-5.56,6.61,17.3,17.3,0,0,1-8.35,1.93,20.9,20.9,0,0,1-8.39-1.69,19.86,19.86,0,0,1-6.91-5,24.45,24.45,0,0,1-4.72-7.95,30.31,30.31,0,0,1-1.73-10.63v-1.59a30.94,30.94,0,0,1,1.68-10.53,24.7,24.7,0,0,1,4.57-7.95A19.5,19.5,0,0,1,226,339.09a17.49,17.49,0,0,1,8.49,1.79,12.54,12.54,0,0,1,5.12,5.57h1.79v-6h12.51v34.37c0,2,.9,3,2.69,3h1.88v11.92h-8.54a7.78,7.78,0,0,1-5.51-2,6.73,6.73,0,0,1-2.14-5.17Zm-11.13-3.38a11.22,11.22,0,0,0,8.75-3.63q3.27-3.62,3.28-9.88v-1.19q0-6.27-3.28-9.89a12.37,12.37,0,0,0-17.49,0q-3.27,3.63-3.28,9.89v1.19q0,6.25,3.28,9.88A11.21,11.21,0,0,0,229.34,379.23Z"/><path class="cls-1" d="M255.25,340.48h14.6V320.22h12.52v20.26h17.79v11.93H282.37v22.45c0,2,.9,3,2.68,3h13.32v11.92H277.5a7.38,7.38,0,0,1-5.51-2.18,7.67,7.67,0,0,1-2.14-5.57v-29.6h-14.6Z"/><rect class="cls-2" x="0.18" width="300.12" height="300.12" rx="68.57" transform="translate(300.3 -0.18) rotate(90)"/><circle class="cls-3" cx="113.16" cy="146.02" r="11.35" transform="translate(-70.1 122.79) rotate(-45)"/><circle class="cls-3" cx="150.24" cy="146.02" r="11.35"/><circle class="cls-3" cx="187.31" cy="146.02" r="11.35" transform="translate(-28.54 46.94) rotate(-13.28)"/><path class="cls-3" d="M57.59,143.44V130a5.63,5.63,0,0,0-.83-10.11V97.88l-4.07-.67v22.72A5.63,5.63,0,0,0,51.86,130v13.4h1.67l-9,45.07H64.88l-9-45.07Z"/><path class="cls-3" d="M234,150.06A83.73,83.73,0,0,0,218,100.76l63.7-10.9L150.24,67.35,18.8,89.86l63.67,10.9a83.79,83.79,0,0,0,117,117.09l39.92,10.57L227.34,182.9A83,83,0,0,0,234,150.06Zm-4.43,68.56L198,210.26l-1.34,1-.08.06a76.08,76.08,0,0,1-46.35,15.56,76.84,76.84,0,0,1-60-124.8l60,10.28,60-10.27a76.87,76.87,0,0,1,10.24,79.11l-.5,1.13Z"/></g></g></svg>